# xmcd
#
# Track frame offsets: 
#        150
#        12778
#        25525
#        38572
#        52079
#        65303
#        74240
#        85149
#        98772
#        112329
#        126006
#        137988
#        152469
#        166588
#        179522
#        193419
#        204945
#        218764
#        229982
#        243173
#        257177
#        269849
#        284652
#        296640
#        308388
#        319089
#        331677
#
# Disc length: 4594 seconds
#
# Revision: 0
# Processed by: cddbd v1.5.2PL0 Copyright (c) Steve Scherf et al.
# Submitted via: ExactAudioCopy v0.99pb3
#
DISCID=8f11f01b
DTITLE=Various Artist - Memphis Blues (Important Postwar Blues) [CDA)
DYEAR=2006
DGENRE=Blues
TTITLE0=Joe Hill Louis - Gotta Let You Go
TTITLE1=Joe Hill Louis - Boogie In The Park
TTITLE2=Henry Hill - That Ain't Right (Take 1)
TTITLE3=Doctor Ross - Little Soldier Boy (take 2)
TTITLE4=Doctor Ross - Country Clown (take 1)
TTITLE5=William Stewrt - County Farm Blues
TTITLE6=William Stewrt - They Call Me Talkin' Boy
TTITLE7=Jimmy and Walter - Easy
TTITLE8=Jimmy and Walter - Before Long
TTITLE9=D.A. Hunt - Lonesome Ol' Jail
TTITLE10=D.A. Hunt - Greyhound Blues
TTITLE11=Sleepy John Estes - Registration Day Blues
TTITLE12=Sleepy John Estes - Rats In My Kitchen
TTITLE13=William Stewart - Rattlesnake Mama
TTITLE14=William Stewart - Forty Four Blues
TTITLE15=Joe Hill Louis - I Feel Like a Million
TTITLE16=Joe Hill Louis - Heartache Baby
TTITLE17=Charlie Burse - Shorty the Barber
TTITLE18=Woodrow Adams - The last time
TTITLE19=Woodrow Adams - Train Is Comin
TTITLE20=Pinetop Perkins - Pinetop's Boogie Woogie
TTITLE21=Sleepy John Estes - Policy Man Blues (Take 1)
TTITLE22=Coy 'Hot Shot' Love - Wolf Call Boogie
TTITLE23=Coy 'Hot Shot' Love - Harmonica Jam
TTITLE24=Jimmy DeBerry - Take A Little Chance
TTITLE25=Doctor Ross - Tailor Made
TTITLE26=Doctor Ross - The Boogie Disease
EXTD=
EXTT0=
EXTT1=
EXTT2=
EXTT3=
EXTT4=
EXTT5=
EXTT6=
EXTT7=
EXTT8=
EXTT9=
EXTT10=
EXTT11=
EXTT12=
EXTT13=
EXTT14=
EXTT15=
EXTT16=
EXTT17=
EXTT18=
EXTT19=
EXTT20=
EXTT21=
EXTT22=
EXTT23=
EXTT24=
EXTT25=
EXTT26=
PLAYORDER=
